<svg width="48" height="50" fill="none" xmlns="http://www.w3.org/2000/svg"><path fill-rule="evenodd" clip-rule="evenodd" d="m16.257 2.795 5.142 2.27v7.09l-5.142-2.207V2.795Zm5.705 9.37 2.395-.964.146-5.108 3.094-1.26V3.11l-5.635 1.972v7.084Zm-.27-7.583 5.37-1.879a456.129 456.129 0 0 1-3.012-1.156c-.627-.244-1.197-.469-1.618-.64-.21-.085-.385-.157-.512-.212a4.314 4.314 0 0 1-.17-.079l-.066.016a8.16 8.16 0 0 0-.47.137c-.4.127-.946.315-1.55.53-.96.343-2.061.75-2.95 1.085l4.979 2.198Zm6.469.022 2.465-1.003 17.263 6.974-.222 7.998-15 6.647-.11 7.282 7.372-3.437 6.41 3.22-.221 7.273L25.61 49.922l-5.9-3.664-.047-3.133-3.49 1.757-14.63-8.835L.044 7.564l7.057-2.702 5.91 2.349.563 21.427 5.907 2.806-.484-15.063 5.902-2.293-.618-.28.057-1.996-2.662 1.072-5.984-2.568V2.17l.181-.068c.952-.362 2.388-.899 3.6-1.33a51.4 51.4 0 0 1 1.568-.537c.204-.065.377-.116.506-.148.063-.015.123-.028.174-.035a.521.521 0 0 1 .093-.004.304.304 0 0 1 .174.06 479.96 479.96 0 0 0 5.99 2.343l.182.069v2.083ZM21.983.106Zm3.65 13.697 8.737-3.395-9.32-3.716-.195 6.76.778.35ZM25.53 6.28l10.37 4.135-15.914 6.183 5.65 2.745 21.218-8.581-16.227-6.556L25.53 6.28Zm21.779 4.902-21.402 8.655v29.307l19.658-9.935.192-6.301-13.87 6.644.221-14.697 15.006-6.65.195-7.023ZM45.416 32.45l-12.952 6.205.084-5.53 7.372-3.437 5.496 2.762ZM25.343 49.095V19.824l-5.76-2.799.477 14.864.21 14.056 5.073 3.15ZM19.5 32.073l-6.479-3.078-.557-21.179-6.623 2.71.97 20.853 9.389 5.31 3.345-1.542-.045-3.074Zm.054 3.687-3.086 1.423v6.923l3.187-1.604-.1-6.742Zm-3.65 8.304L2.09 35.722.644 8.218l4.632 2.3.986 21.194 9.643 5.455v6.897ZM5.562 10.034l6.425-2.628-4.888-1.942-6.064 2.322 4.527 2.248Z" fill="#011627"/></svg>